<svg xmlns="http://www.w3.org/2000/svg" width="93" height="123" viewBox="0 0 93 123">
    <g fill="none" fill-rule="evenodd">
        <g>
            <g>
                <g>
                    <path fill="#FFAF00" fill-rule="nonzero" d="M40.829 7.716H45.101V102.43799999999999H40.829z" transform="translate(-933 -649) translate(308 620) translate(625 29) rotate(15.159 42.965 55.077)"/>
                    <path fill="#FFAF00" fill-rule="nonzero" d="M60.255 4.023c-.21 1.854-1.884 3.186-3.735 2.976-1.854-.21-3.186-1.884-2.976-3.738.21-1.854 1.884-3.186 3.738-2.976 1.851.213 3.183 1.884 2.973 3.738z" transform="translate(-933 -649) translate(308 620) translate(625 29)"/>
                    <g>
                        <path d="M74.907 19.524c.816-.078 1.632-.027 2.442.162-.813-.189-1.626-.24-2.442-.162zM29.115 1.992c.948.306 1.884.642 2.805 1.029-.921-.387-1.857-.723-2.805-1.029z" transform="translate(-933 -649) translate(308 620) translate(625 29) translate(0 13.5)"/>
                        <path d="M74.907 19.524c-.657.063-1.317.204-1.977.414.66-.21 1.317-.354 1.977-.414zM74.466 67.992c-.015-.093-.027-.186-.042-.282.015.096.027.189.042.282z" transform="translate(-933 -649) translate(308 620) translate(625 29) translate(0 13.5)"/>
                        <path fill="#5998FF" fill-rule="nonzero" d="M74.253 66.747c-.552-2.508-.744-5.082-1.41-7.575-.993-3.72-3.387-5.976-7.011-7.086-2.352-.72-4.794-1.128-7.074-2.094-4.491-1.905-7.443-6.369-7.209-10.887.279-5.367 3.399-9.441 8.406-10.935 4.485-1.338 8.796-.57 13.029 1.113 1.467.585 2.958 1.095 4.524 1.371 1.626.288 3.126.099 4.524-.495-1.08-3.723-2.667-7.242-4.686-10.476-.81-.186-1.626-.237-2.442-.162-.657.063-1.317.204-1.977.414-.882.282-1.767.687-2.655 1.191-1.692.963-3.315 2.052-5.1 2.85-2.037.912-4.116 1.374-6.303.552-2.733-1.026-3.831-3.429-2.73-6.12.414-1.017.933-1.998 1.485-2.949 1.122-1.938 1.458-3.978.996-6.162-.075-.36-.12-.726-.18-1.086-.279-1.689-.168-3.231.657-4.509C54.798 1.758 50.094.516 45.117.129c-5.577-.432-10.98.252-15.996 1.863.948.306 1.884.642 2.805 1.029.312.132.624.27.933.414 2.529 1.185 4.62 2.793 4.95 5.844.237 2.196-.693 4.014-1.983 5.679-2.202 2.844-5.385 3.969-8.676 4.893-2.685.753-5.442 1.284-7.983 2.49-1.818.861-3.414 2.016-4.689 3.591-2.592 3.21-2.454 6.87.369 9.87 2.016 2.142 4.617 3.243 7.356 4.032 5.73 1.65 11.157 3.927 15.972 7.503 1.956 1.452 3.654 3.12 4.014 5.697.327 2.346-.456 4.416-1.671 6.366-1.14 1.833-2.7 3.294-4.233 4.773-1.191 1.149-2.409 2.277-3.411 3.603-3.387 4.476-3.942 9.294-1.8 14.418 2.439.651 4.971 1.089 7.578 1.293 14.295 1.11 27.465-5.109 35.823-15.492-.015-.093-.027-.189-.042-.282-.057-.327-.111-.648-.18-.966zM18.912 71.76c-.777-2.613-1.506-5.247-2.445-7.803-.918-2.502-2.295-4.761-3.582-7.071-1.149-2.064-2.154-4.17-2.355-6.585-.147-1.776.366-3.435.801-5.094.885-3.39-.072-6.147-2.595-8.463-1.83-1.68-3.972-2.898-6.081-4.17-.456-.273-.903-.558-1.35-.843-.546 2.211-.921 4.497-1.104 6.846-1.29 16.617 7.323 31.716 20.874 39.501-.552-1.338-1.032-2.703-1.473-4.083-.24-.744-.468-1.488-.69-2.235z" transform="translate(-933 -649) translate(308 620) translate(625 29) translate(0 13.5)"/>
                        <path fill="#00535F" fill-rule="nonzero" d="M1.305 31.728c.447.285.897.57 1.35.843 2.109 1.272 4.251 2.49 6.081 4.17 2.523 2.316 3.48 5.07 2.595 8.463-.432 1.659-.948 3.321-.801 5.094.201 2.415 1.206 4.521 2.355 6.585 1.287 2.31 2.664 4.572 3.582 7.071.939 2.556 1.665 5.19 2.445 7.803.222.747.45 1.491.687 2.235.441 1.38.921 2.745 1.473 4.083 3.093 1.776 6.444 3.174 9.993 4.119-2.142-5.124-1.587-9.942 1.8-14.418 1.002-1.323 2.22-2.451 3.411-3.603 1.536-1.482 3.093-2.943 4.233-4.773 1.215-1.95 1.998-4.023 1.671-6.366-.36-2.577-2.061-4.245-4.014-5.697-4.815-3.576-10.242-5.853-15.972-7.503-2.736-.789-5.34-1.893-7.356-4.032-2.823-3-2.958-6.66-.369-9.87 1.272-1.578 2.871-2.73 4.689-3.591 2.544-1.206 5.298-1.737 7.983-2.49 3.291-.921 6.474-2.049 8.676-4.893 1.29-1.665 2.223-3.483 1.983-5.679-.33-3.051-2.424-4.659-4.95-5.844-.309-.144-.621-.282-.933-.414-.918-.387-1.857-.723-2.805-1.029C15.537 6.348 4.821 17.499 1.305 31.728z" transform="translate(-933 -649) translate(308 620) translate(625 29) translate(0 13.5)"/>
                        <path fill="#00595F" fill-rule="nonzero" d="M21.072 78.075c-.552-1.338-1.032-2.703-1.473-4.083.441 1.38.921 2.745 1.473 4.083zM18.912 71.76c.222.747.45 1.491.687 2.235-.237-.744-.465-1.488-.687-2.235z" transform="translate(-933 -649) translate(308 620) translate(625 29) translate(0 13.5)"/>
                        <path fill="#00535F" fill-rule="nonzero" d="M82.035 30.159c-1.398.594-2.898.783-4.524.495-1.566-.276-3.057-.789-4.524-1.371-4.233-1.683-8.544-2.451-13.029-1.113-5.004 1.494-8.124 5.568-8.406 10.935-.237 4.518 2.718 8.982 7.209 10.887 2.277.966 4.722 1.377 7.074 2.094 3.624 1.107 6.018 3.366 7.011 7.086.666 2.493.858 5.067 1.41 7.575.069.318.12.639.171.963.015.093.027.186.042.282 5.103-6.339 8.412-14.226 9.09-22.95.396-5.166-.162-10.185-1.524-14.883zM59.091 3.702c-.822 1.278-.936 2.82-.657 4.509.06.363.105.729.18 1.086.462 2.184.123 4.224-.996 6.162-.552.951-1.071 1.935-1.485 2.949-1.098 2.691-.003 5.094 2.73 6.12 2.19.822 4.266.36 6.303-.552 1.785-.798 3.408-1.887 5.1-2.85.888-.507 1.773-.912 2.655-1.191.66-.21 1.32-.351 1.977-.414.816-.078 1.632-.027 2.442.162-4.329-6.939-10.656-12.552-18.249-15.981z" transform="translate(-933 -649) translate(308 620) translate(625 29) translate(0 13.5)"/>
                    </g>
                    <path fill="#FFAF00" fill-rule="nonzero" d="M92.922 54.651c-.009-.624-.027-1.248-.057-1.869-.009-.186-.024-.372-.033-.555-.03-.522-.069-1.041-.117-1.56-.009-.099-.012-.201-.024-.3l-.048-.423c-.036-.336-.075-.672-.117-1.008-.036-.273-.072-.546-.111-.819-.045-.324-.093-.648-.147-.972-.045-.285-.096-.567-.147-.852-.057-.309-.111-.618-.171-.927-.06-.297-.126-.594-.189-.891-.063-.291-.126-.585-.195-.873-.075-.315-.156-.627-.237-.939-.069-.27-.135-.54-.21-.807-.093-.342-.195-.681-.297-1.02-.069-.237-.135-.474-.21-.711-.126-.405-.264-.807-.399-1.209-.054-.156-.102-.315-.156-.468-.006-.012-.009-.027-.015-.039-.036-.102-.075-.204-.114-.306-.147-.414-.3-.825-.459-1.233-.018-.042-.03-.087-.048-.129-.048-.12-.099-.237-.147-.354-.15-.378-.306-.753-.465-1.128l-.243-.558c-.156-.354-.315-.705-.48-1.053l-.252-.534c-.192-.396-.39-.792-.594-1.185l-.18-.357c-.267-.51-.543-1.014-.828-1.512-.063-.111-.129-.219-.195-.33-.225-.387-.453-.774-.687-1.155-.099-.162-.201-.324-.303-.483-.21-.333-.426-.666-.642-.996l-.324-.486c-.237-.348-.477-.693-.723-1.035-.093-.129-.18-.258-.273-.384-.342-.471-.693-.936-1.053-1.395-.009-.012-.018-.021-.024-.033-.348-.444-.705-.879-1.068-1.311-.105-.123-.21-.246-.318-.369-.276-.321-.552-.639-.837-.954l-.369-.405c-.288-.312-.579-.621-.876-.927l-.333-.345c-.39-.396-.786-.789-1.191-1.17-.015-.015-.03-.03-.048-.045-.435-.411-.879-.816-1.329-1.212-.084-.075-.168-.144-.252-.219-.36-.312-.723-.621-1.092-.927-.123-.102-.249-.204-.375-.306-.345-.279-.696-.555-1.05-.825-.123-.093-.243-.189-.369-.279-.411-.309-.828-.612-1.248-.909-.048-.033-.096-.072-.144-.105l-.036-.024c-.552-.384-1.11-.756-1.68-1.122l-.273-.171c-.483-.306-.972-.6-1.467-.891l-.348-.204c-1.155-.663-2.34-1.281-3.555-1.857-.147-.069-.294-.138-.441-.204-.51-.234-1.023-.462-1.542-.681-.111-.048-.219-.096-.33-.141-.615-.255-1.239-.498-1.869-.729-.138-.051-.279-.099-.417-.147-.507-.18-1.017-.354-1.53-.522l-.534-.171c-.645-.201-1.296-.396-1.953-.573-2.202-.591-4.41-1.029-6.609-1.32-1.815-.24-3.522.912-3.999 2.679l-.003.006-.009.033c-.075.288-.486 2.19 1.695 2.454.054.006.096.018.144.024 5.082.501 9.897 1.809 14.319 3.807 8.289 3.744 15.198 9.873 19.932 17.451 2.205 3.531 3.939 7.374 5.118 11.439 1.488 5.13 2.1 10.611 1.662 16.251-.738 9.525-4.353 18.138-9.924 25.059-9.126 11.337-23.508 18.129-39.114 16.917-2.847-.222-5.61-.702-8.274-1.41-2.55-.678-4.995-1.587-7.335-2.676l-.081-.03c-1.899-.837-2.376.819-2.376.819l-.156.579-.003.006c-.474 1.767.426 3.621 2.115 4.323 2.049.852 4.179 1.581 6.381 2.172.66.177 1.317.336 1.977.486.183.042.366.081.549.12.528.114 1.056.219 1.587.318.144.027.291.057.435.081.66.114 1.323.219 1.983.306l.357.042c.15.018.3.033.447.048.789.135 2.316.648 2.046 2.562l-.765 5.448c-.243 1.734-1.626 1.881-1.983 1.89h-5.802v3.543h-3.465c-.906 0-1.647.741-1.647 1.647s.741 1.647 1.647 1.647h33.966c.906 0 1.647-.741 1.647-1.647s-.741-1.647-1.647-1.647h-3.465v-3.543h-5.631c-1.821 0-2.154-1.884-2.157-1.887l-.765-5.448-.006-.051c-.045-.336-.21-2.364 2.211-2.826.471-.078.942-.162 1.41-.252.108-.021.219-.039.327-.063.588-.117 1.176-.246 1.758-.384.021-.006.042-.012.063-.015.543-.129 1.08-.27 1.617-.417.153-.042.309-.087.462-.132.408-.117.816-.237 1.221-.363.174-.054.348-.108.522-.165.402-.129.804-.267 1.203-.405.153-.054.306-.105.459-.162.531-.192 1.056-.39 1.581-.6.012-.006.024-.009.039-.015.54-.216 1.077-.444 1.608-.678.144-.063.285-.129.429-.195.384-.174.765-.351 1.143-.531.174-.084.351-.171.525-.258.354-.174.705-.354 1.056-.537.168-.087.339-.177.507-.267.393-.213.786-.432 1.176-.654.111-.063.222-.123.333-.189.495-.288.987-.588 1.473-.894.114-.072.222-.144.336-.216.372-.237.741-.48 1.107-.726l.486-.336c.318-.219.633-.444.945-.669.165-.12.33-.24.492-.36.327-.243.648-.492.969-.741.102-.078.204-.153.306-.234.036-.027.069-.06.105-.087.342-.273.681-.555 1.017-.837.084-.069.168-.138.252-.21l.033-.027c.126-.108.246-.219.369-.327.318-.279.639-.558.951-.846.183-.168.36-.339.537-.51.258-.243.516-.486.768-.735.198-.195.39-.396.585-.594.228-.231.453-.459.675-.696.204-.216.405-.438.606-.657.204-.225.408-.447.609-.675.207-.234.411-.474.615-.714.186-.219.372-.438.555-.663.207-.252.411-.51.615-.765.171-.216.339-.432.507-.654.204-.27.405-.54.606-.813.084-.114.171-.225.255-.342.06-.081.111-.168.171-.249.3-.426.597-.855.885-1.29.102-.156.207-.309.309-.465.339-.522.669-1.053.987-1.59.042-.072.087-.138.129-.21.372-.63.732-1.269 1.077-1.917.033-.06.06-.12.093-.18.297-.564.585-1.137.864-1.716.09-.189.177-.384.267-.576.213-.456.42-.915.618-1.38.099-.231.195-.462.291-.696.183-.441.357-.885.528-1.332.09-.24.183-.48.273-.723.171-.471.333-.951.492-1.431.072-.216.147-.429.216-.648.219-.696.429-1.398.621-2.109.192-.711.363-1.425.522-2.136.051-.222.093-.447.138-.669.105-.495.204-.99.291-1.485.045-.255.087-.507.129-.762.078-.474.15-.945.213-1.419.033-.249.066-.498.096-.747.06-.501.111-1.002.156-1.503.018-.21.042-.42.057-.633.051-.639.087-1.278.114-1.917.003-.069.009-.135.012-.204.027-.735.036-1.467.03-2.199-.003-.078-.006-.159-.006-.243z" transform="translate(-933 -649) translate(308 620) translate(625 29)"/>
                </g>
            </g>
        </g>
    </g>
</svg>
