<svg height="32" viewBox="0 0 120 32" width="120" xmlns="http://www.w3.org/2000/svg"><g fill="#fff" fill-rule="evenodd" transform="translate(10 3)"><path d="m15.0394 12.3368c-.025-2.751 2.252-4.089 2.356-4.152-1.29-1.881-3.289-2.138-3.991-2.158-1.679-.176-3.307 1.005-4.163 1.005-.872 0-2.189-.987-3.608-.958-1.826.028-3.536 1.086-4.473 2.728-1.934 3.348-.492 8.269 1.36 10.975.928 1.327 2.011 2.807 3.428 2.754 1.388-.057 1.905-.884 3.58-.884 1.658 0 2.145.884 3.591.851 1.488-.024 2.426-1.332 3.32-2.67 1.072-1.519 1.501-3.015 1.519-3.092-.035-.012-2.891-1.101-2.919-4.399"/><path d="m12.307 4.247c.746-.933 1.257-2.202 1.115-3.491-1.08.048-2.43.747-3.208 1.66-.687.804-1.303 2.123-1.143 3.361 1.213.091 2.458-.612 3.236-1.53"/><path d="m32.5726 19.1757h-4.733l-1.137 3.356h-2.005l4.483-12.418h2.083l4.484 12.418h-2.039zm-4.243-1.549h3.752l-1.85-5.447h-.052z"/><path d="m45.43 18.0058c0 2.813-1.506 4.621-3.778 4.621-1.29 0-2.315-.577-2.849-1.584h-.043v4.484h-1.858v-12.048h1.799v1.506h.034c.516-.972 1.618-1.601 2.882-1.601 2.298 0 3.813 1.816 3.813 4.622m-1.91 0c0-1.833-.947-3.038-2.393-3.038-1.42 0-2.375 1.23-2.375 3.038 0 1.824.955 3.046 2.375 3.046 1.446 0 2.393-1.196 2.393-3.046"/><path d="m55.3949 18.0058c0 2.813-1.506 4.621-3.778 4.621-1.29 0-2.315-.577-2.849-1.584h-.043v4.484h-1.858v-12.048h1.799v1.506h.034c.516-.972 1.618-1.601 2.882-1.601 2.298 0 3.813 1.816 3.813 4.622m-1.91 0c0-1.833-.947-3.038-2.393-3.038-1.42 0-2.375 1.23-2.375 3.038 0 1.824.955 3.046 2.375 3.046 1.446 0 2.393-1.196 2.393-3.046"/><path d="m61.9808 19.0722c.138 1.231 1.334 2.04 2.969 2.04 1.566 0 2.693-.809 2.693-1.919 0-.964-.68-1.541-2.289-1.936l-1.609-.388c-2.281-.551-3.339-1.617-3.339-3.348 0-2.142 1.867-3.614 4.518-3.614 2.624 0 4.423 1.472 4.484 3.614h-1.876c-.113-1.239-1.137-1.987-2.634-1.987s-2.521.757-2.521 1.858c0 .878.654 1.395 2.254 1.79l1.369.336c2.547.603 3.606 1.626 3.606 3.443 0 2.323-1.851 3.778-4.794 3.778-2.754 0-4.613-1.421-4.733-3.667z"/><path d="m73.6165 11.3358v2.143h1.722v1.471h-1.722v4.991c0 .776.345 1.137 1.102 1.137.189 0 .491-.026.611-.043v1.463c-.206.052-.619.086-1.032.086-1.833 0-2.548-.688-2.548-2.444v-5.19h-1.317v-1.471h1.317v-2.143z"/><path d="m76.3353 18.0058c0-2.849 1.678-4.639 4.294-4.639 2.625 0 4.295 1.79 4.295 4.639 0 2.856-1.661 4.639-4.295 4.639-2.633 0-4.294-1.783-4.294-4.639m6.695 0c0-1.954-.895-3.107-2.401-3.107s-2.4 1.162-2.4 3.107c0 1.962.894 3.106 2.4 3.106s2.401-1.144 2.401-3.106"/><path d="m86.4564 13.4784h1.772v1.541h.043c.285-1.024 1.111-1.636 2.178-1.636.267 0 .489.035.637.07v1.738c-.148-.061-.474-.112-.835-.112-1.196 0-1.937.809-1.937 2.083v5.37h-1.858z"/><path d="m99.6546 19.8729c-.25 1.644-1.851 2.771-3.898 2.771-2.634 0-4.269-1.764-4.269-4.595 0-2.84 1.644-4.682 4.19-4.682 2.505 0 4.081 1.721 4.081 4.466v.637h-6.395v.112c0 1.549.973 2.564 2.436 2.564 1.032 0 1.841-.49 2.09-1.273zm-6.282-2.702h4.525c-.043-1.386-.929-2.298-2.22-2.298-1.282 0-2.21.93-2.305 2.298z"/><path d="m28.096.767c1.77 0 2.808 1.087 2.808 2.965 0 1.906-1.031 3.002-2.808 3.002h-2.155v-5.967zm-1.229 5.123h1.125c1.249 0 1.968-.777 1.968-2.146 0-1.348-.731-2.134-1.968-2.134h-1.125z"/><path d="m31.9505 4.4804c0-1.452.811-2.336 2.125-2.336 1.312 0 2.122.884 2.122 2.336 0 1.459-.807 2.34-2.122 2.34-1.318 0-2.125-.881-2.125-2.34m3.333 0c0-.976-.438-1.547-1.208-1.547-.772 0-1.207.571-1.207 1.547 0 .984.435 1.55 1.207 1.55.77 0 1.208-.57 1.208-1.55"/><path d="m41.8431 6.7338h-.922l-.931-3.316h-.07l-.927 3.316h-.913l-1.241-4.503h.901l.807 3.436h.067l.925-3.436h.853l.926 3.436h.07l.803-3.436h.888z"/><path d="m44.1234 2.2309h.855v.715h.067c.219-.5.666-.802 1.344-.802 1.005 0 1.558.604 1.558 1.675v2.915h-.888v-2.692c0-.724-.315-1.083-.972-1.083s-1.075.438-1.075 1.141v2.634h-.889z"/><path d="m49.364 6.734h.889v-6.261h-.889z"/><path d="m51.4876 4.4804c0-1.452.811-2.336 2.125-2.336 1.312 0 2.123.884 2.123 2.336 0 1.459-.808 2.34-2.123 2.34-1.318 0-2.125-.881-2.125-2.34m3.333 0c0-.976-.438-1.547-1.208-1.547-.772 0-1.207.571-1.207 1.547 0 .984.435 1.55 1.207 1.55.77 0 1.208-.57 1.208-1.55"/><path d="m56.6712 5.4603c0-.811.604-1.278 1.675-1.344l1.22-.071v-.388c0-.476-.315-.744-.922-.744-.496 0-.84.182-.939.5h-.86c.091-.773.818-1.269 1.84-1.269 1.129 0 1.765.562 1.765 1.513v3.076h-.855v-.632h-.07c-.269.45-.761.707-1.353.707-.868 0-1.501-.525-1.501-1.348m2.895-.385v-.376l-1.1.07c-.62.042-.901.253-.901.649 0 .406.351.642.835.642.669 0 1.166-.427 1.166-.985"/><path d="m61.6185 4.4804c0-1.423.731-2.324 1.869-2.324.616 0 1.137.293 1.381.79h.066v-2.473h.889v6.26h-.851v-.711h-.071c-.268.492-.794.786-1.414.786-1.145 0-1.869-.902-1.869-2.328m.918 0c0 .955.45 1.53 1.203 1.53.749 0 1.212-.583 1.212-1.526 0-.939-.468-1.53-1.212-1.53-.748 0-1.203.579-1.203 1.526"/><path d="m69.5003 4.4804c0-1.452.811-2.336 2.125-2.336 1.312 0 2.122.884 2.122 2.336 0 1.459-.807 2.34-2.122 2.34-1.318 0-2.125-.881-2.125-2.34m3.333 0c0-.976-.438-1.547-1.208-1.547-.772 0-1.207.571-1.207 1.547 0 .984.435 1.55 1.207 1.55.77 0 1.208-.57 1.208-1.55"/><path d="m74.9398 2.2309h.855v.715h.067c.219-.5.666-.802 1.344-.802 1.005 0 1.558.604 1.558 1.675v2.915h-.888v-2.692c0-.724-.315-1.083-.972-1.083s-1.075.438-1.075 1.141v2.634h-.889z"/><path d="m83.7855 1.1098v1.142h.976v.748h-.976v2.316c0 .471.194.678.637.678.136 0 .215-.009.339-.021v.741c-.145.024-.311.045-.484.045-.988 0-1.382-.348-1.382-1.216v-2.543h-.714v-.748h.714v-1.142z"/><path d="m85.9749.473h.881v2.481h.07c.219-.504.695-.806 1.373-.806.959 0 1.551.608 1.551 1.679v2.907h-.89v-2.688c0-.719-.335-1.084-.963-1.084-.728 0-1.133.46-1.133 1.142v2.63h-.889z"/><path d="m95.0316 5.518c-.202.807-.923 1.303-1.951 1.303-1.29 0-2.08-.885-2.08-2.324s.806-2.353 2.076-2.353c1.253 0 2.009.856 2.009 2.27v.31h-3.18v.05c.029.789.488 1.29 1.198 1.29.539 0 .907-.194 1.073-.546zm-3.126-1.451h2.274c-.02-.707-.451-1.167-1.108-1.167s-1.116.464-1.166 1.167z"/></g></svg>