<svg height="32" viewBox="0 0 120 32" width="120" xmlns="http://www.w3.org/2000/svg" xmlns:xlink="http://www.w3.org/1999/xlink"><linearGradient id="a" x1="61.025139%" x2="26.461709%" y1="4.946151%" y2="71.87874%"><stop offset="0" stop-color="#00a0ff"/><stop offset=".01" stop-color="#00a1ff"/><stop offset=".26" stop-color="#00beff"/><stop offset=".51" stop-color="#00d2ff"/><stop offset=".76" stop-color="#00dfff"/><stop offset="1" stop-color="#00e3ff"/></linearGradient><linearGradient id="b" x1="107.684729%" x2="-130.640394%" y1="50%" y2="50%"><stop offset="0" stop-color="#ffe000"/><stop offset=".41" stop-color="#ffbd00"/><stop offset=".78" stop-color="#ffa500"/><stop offset="1" stop-color="#ff9c00"/></linearGradient><linearGradient id="c" x1="86.245061%" x2="-50.146392%" y1="30.90064%" y2="136.01897%"><stop offset="0" stop-color="#ff3a44"/><stop offset="1" stop-color="#c31162"/></linearGradient><linearGradient id="d" x1="-18.82494%" x2="42.086331%" y1="-11.801979%" y2="35.105226%"><stop offset="0" stop-color="#32a071"/><stop offset=".07" stop-color="#2da771"/><stop offset=".48" stop-color="#15cf74"/><stop offset=".8" stop-color="#06e775"/><stop offset="1" stop-color="#00f076"/></linearGradient><mask id="e" fill="#fff"><path d="m1.436.538c-.291.308-.463.786-.463 1.405v22.116c0 .62.172 1.097.463 1.404l.073.073 12.39-12.389v-.146-.146l-12.39-12.39z" fill="#fff" fill-rule="evenodd"/></mask><mask id="f" fill="#fff"><path d="m.899 4.855v.146.146l4.129 4.131.094-.052 4.893-2.78c1.397-.795 1.397-2.095 0-2.889l-4.893-2.78-.093-.053z" fill="#fff" fill-rule="evenodd"/></mask><mask id="g" fill="#fff"><path d="m.436 12.463c.46.488 1.221.549 2.078.062l14.608-8.3-4.223-4.224z" fill="#fff" fill-rule="evenodd"/></mask><mask id="h" fill="#fff"><path d="m.436.538 12.463 12.463 4.223-4.224-14.608-8.3c-.402-.229-.783-.337-1.121-.337-.384 0-.713.139-.957.398" fill="#fff" fill-rule="evenodd"/></mask><g fill="none" fill-rule="evenodd"><g transform="translate(33 2.0002)"><path d="m6.4184 4.2431c0 .838-.248 1.505-.745 2.003-.565.592-1.3.888-2.204.888-.866 0-1.603-.3-2.208-.901-.607-.6-.909-1.345-.909-2.233 0-.889.302-1.633.909-2.234.605-.6 1.342-.9 2.208-.9.429 0 .841.084 1.231.251.391.168.704.391.939.67l-.528.528c-.397-.474-.944-.712-1.642-.712-.632 0-1.178.222-1.639.666-.461.445-.691 1.021-.691 1.731 0 .709.23 1.286.691 1.73.461.445 1.007.666 1.639.666.67 0 1.228-.223 1.676-.67.29-.291.458-.695.502-1.215h-2.178v-.721h2.907c.028.157.042.307.042.453" fill="#fff"/><path d="m6.4184 4.2431c0 .838-.248 1.505-.745 2.003-.565.592-1.3.888-2.204.888-.866 0-1.603-.3-2.208-.901-.607-.6-.909-1.345-.909-2.233 0-.889.302-1.633.909-2.234.605-.6 1.342-.9 2.208-.9.429 0 .841.084 1.231.251.391.168.704.391.939.67l-.528.528c-.397-.474-.944-.712-1.642-.712-.632 0-1.178.222-1.639.666-.461.445-.691 1.021-.691 1.731 0 .709.23 1.286.691 1.73.461.445 1.007.666 1.639.666.67 0 1.228-.223 1.676-.67.29-.291.458-.695.502-1.215h-2.178v-.721h2.907c.028.157.042.307.042.453z" stroke="#fff" stroke-width=".2"/><path d="m11.0277 1.7372h-2.732v1.902h2.463v.721h-2.463v1.902h2.732v.738h-3.503v-6h3.503z" fill="#fff"/><path d="m11.0277 1.7372h-2.732v1.902h2.463v.721h-2.463v1.902h2.732v.738h-3.503v-6h3.503z" stroke="#fff" stroke-width=".2"/><path d="m14.2787 6.9999h-.771v-5.263h-1.676v-.737h4.123v.737h-1.676z" fill="#fff"/><path d="m14.2787 6.9999h-.771v-5.263h-1.676v-.737h4.123v.737h-1.676z" stroke="#fff" stroke-width=".2"/><path d="m18.938 7h.771v-6h-.771z" fill="#fff"/><path d="m18.938 7h.771v-6h-.771z" stroke="#fff" stroke-width=".2"/><path d="m23.1283 6.9999h-.771v-5.263h-1.676v-.737h4.123v.737h-1.676z" fill="#fff"/><path d="m23.1283 6.9999h-.771v-5.263h-1.676v-.737h4.123v.737h-1.676z" stroke="#fff" stroke-width=".2"/><path d="m28.7792 5.7221c.444.45.987.674 1.63.674.642 0 1.186-.224 1.63-.674s.667-1.024.667-1.722-.223-1.273-.667-1.722c-.444-.45-.988-.675-1.63-.675-.643 0-1.186.225-1.63.675-.443.449-.666 1.024-.666 1.722s.223 1.272.666 1.722m3.83.502c-.59.607-1.323.91-2.2.91s-1.61-.303-2.199-.91c-.59-.606-.884-1.347-.884-2.224s.294-1.619.884-2.225c.589-.606 1.322-.909 2.199-.909.872 0 1.603.304 2.196.913.592.609.888 1.349.888 2.221 0 .877-.295 1.618-.884 2.224" fill="#fff"/><path d="m28.7792 5.7221c.444.45.987.674 1.63.674.642 0 1.186-.224 1.63-.674s.667-1.024.667-1.722-.223-1.273-.667-1.722c-.444-.45-.988-.675-1.63-.675-.643 0-1.186.225-1.63.675-.443.449-.666 1.024-.666 1.722s.223 1.272.666 1.722zm3.83.502c-.59.607-1.323.91-2.2.91s-1.61-.303-2.199-.91c-.59-.606-.884-1.347-.884-2.224s.294-1.619.884-2.225c.589-.606 1.322-.909 2.199-.909.872 0 1.603.304 2.196.913.592.609.888 1.349.888 2.221 0 .877-.295 1.618-.884 2.224z" stroke="#fff" stroke-width=".2"/><path d="m34.5751 6.9999v-6h.938l2.916 4.667h.034l-.034-1.156v-3.511h.772v6h-.805l-3.05-4.894h-.034l.034 1.157v3.737z" fill="#fff"/><path d="m34.5751 6.9999v-6h.938l2.916 4.667h.034l-.034-1.156v-3.511h.772v6h-.805l-3.05-4.894h-.034l.034 1.157v3.737z" stroke="#fff" stroke-width=".2"/><path d="m65.936 24h1.865v-12.501h-1.865zm16.807-7.998-2.139 5.42h-.064l-2.22-5.42h-2.01l3.33 7.575-1.899 4.214h1.946l5.131-11.789zm-10.583 6.578c-.61 0-1.463-.306-1.463-1.062 0-.964 1.062-1.335 1.979-1.335.819 0 1.206.178 1.704.418-.145 1.159-1.142 1.979-2.22 1.979zm.226-6.852c-1.351 0-2.75.596-3.329 1.914l1.656.692c.354-.692 1.013-.917 1.705-.917.965 0 1.946.579 1.962 1.608v.129c-.338-.193-1.062-.482-1.946-.482-1.786 0-3.603.981-3.603 2.814 0 1.673 1.464 2.751 3.104 2.751 1.254 0 1.947-.563 2.38-1.223h.065v.965h1.802v-4.793c0-2.219-1.658-3.458-3.796-3.458zm-11.532 1.796h-2.654v-4.285h2.654c1.395 0 2.187 1.154 2.187 2.142 0 .969-.792 2.143-2.187 2.143zm-.048-6.026h-4.471v12.502h1.865v-4.736h2.606c2.068 0 4.101-1.498 4.101-3.883s-2.033-3.883-4.101-3.883zm-24.381 11.084c-1.289 0-2.368-1.079-2.368-2.561 0-1.499 1.079-2.594 2.368-2.594 1.272 0 2.271 1.095 2.271 2.594 0 1.482-.999 2.561-2.271 2.561zm2.142-5.88h-.064c-.419-.499-1.225-.951-2.239-.951-2.127 0-4.077 1.869-4.077 4.27 0 2.384 1.95 4.237 4.077 4.237 1.014 0 1.82-.451 2.239-.967h.064v.612c0 1.628-.87 2.497-2.271 2.497-1.144 0-1.853-.821-2.143-1.514l-1.627.677c.467 1.127 1.707 2.513 3.77 2.513 2.191 0 4.044-1.289 4.044-4.431v-7.636h-1.773zm3.062 7.298h1.868v-12.501h-1.868zm4.623-4.124c-.048-1.644 1.273-2.481 2.223-2.481.742 0 1.37.371 1.58.902zm5.8-1.418c-.355-.95-1.434-2.707-3.641-2.707-2.191 0-4.012 1.724-4.012 4.254 0 2.384 1.805 4.253 4.221 4.253 1.949 0 3.077-1.192 3.545-1.885l-1.45-.967c-.484.709-1.144 1.176-2.095 1.176-.95 0-1.627-.435-2.061-1.289l5.686-2.352zm-45.308-1.401v1.804h4.317c-.128 1.015-.467 1.756-.982 2.271-.629.629-1.612 1.322-3.335 1.322-2.659 0-4.737-2.143-4.737-4.801s2.078-4.802 4.737-4.802c1.434 0 2.481.564 3.254 1.29l1.273-1.273c-1.08-1.031-2.513-1.821-4.527-1.821-3.642 0-6.703 2.965-6.703 6.606 0 3.64 3.061 6.605 6.703 6.605 1.965 0 3.447-.645 4.607-1.853 1.192-1.192 1.563-2.868 1.563-4.221 0-.418-.032-.805-.097-1.127zm11.078 5.525c-1.288 0-2.4-1.063-2.4-2.577 0-1.531 1.112-2.578 2.4-2.578 1.289 0 2.401 1.047 2.401 2.578 0 1.514-1.112 2.577-2.401 2.577zm0-6.831c-2.352 0-4.269 1.789-4.269 4.254 0 2.449 1.917 4.253 4.269 4.253 2.353 0 4.27-1.804 4.27-4.253 0-2.465-1.917-4.254-4.27-4.254zm9.314 6.831c-1.289 0-2.401-1.063-2.401-2.577 0-1.531 1.112-2.578 2.401-2.578s2.4 1.047 2.4 2.578c0 1.514-1.111 2.577-2.4 2.577zm0-6.831c-2.352 0-4.269 1.789-4.269 4.254 0 2.449 1.917 4.253 4.269 4.253s4.269-1.804 4.269-4.253c0-2.465-1.917-4.254-4.269-4.254z" fill="#fff"/></g><path d="m1.436.538c-.291.308-.463.786-.463 1.405v22.116c0 .62.172 1.097.463 1.404l.073.073 12.39-12.389v-.146-.146l-12.39-12.39z" fill="url(#a)" fill-rule="nonzero" mask="url(#e)" transform="translate(1 3.0002)"/><path d="m.899 4.855v.146.146l4.129 4.131.094-.052 4.893-2.78c1.397-.795 1.397-2.095 0-2.889l-4.893-2.78-.093-.053z" fill="url(#b)" fill-rule="nonzero" mask="url(#f)" transform="translate(14 11.0002)"/><path d="m.436 12.463c.46.488 1.221.549 2.078.062l14.608-8.3-4.223-4.224z" fill="url(#c)" mask="url(#g)" transform="translate(2 16.0002)"/><g fill-rule="nonzero"><path d="m.436.538 12.463 12.463 4.223-4.224-14.608-8.3c-.402-.229-.783-.337-1.121-.337-.384 0-.713.139-.957.398" fill="url(#d)" mask="url(#h)" transform="translate(2 3.0002)"/><g transform="translate(1 3.0002)"><g fill="#000"><path d="m18.0287 17.1317-14.515 8.248c-.812.46-1.538.43-2.004.01l-.074.075.073.072.001-.001c.466.42 1.192.451 2.004-.01l14.608-8.301z" opacity=".2"/><path d="m1.4354 25.3183c-.291-.308-.463-.786-.463-1.405v.146c0 .619.172 1.097.463 1.405l.074-.074z" opacity=".12"/><path d="m23.0146 14.2987-4.986 2.833.093.093 4.893-2.78c.699-.397 1.048-.92 1.048-1.443-.059.473-.414.937-1.048 1.297" opacity=".12"/></g><path d="m3.5136.6229 19.501 11.08c.634.36.989.824 1.0480021 1.298.0009979-.523-.3490021-1.047-1.0480021-1.444l-19.501-11.08c-1.398-.794-2.541-.134-2.541 1.466v.146c0-1.6 1.143-2.26 2.541-1.466" fill="#fff" opacity=".25"/></g></g></g></svg>