<svg xmlns="http://www.w3.org/2000/svg" width="317" height="181" viewBox="0 0 317 181">
    <g fill="none" fill-rule="evenodd">
        <g>
            <g>
                <path d="M93.868 176.557h128.844s8.02.032 9.034-7.101l12.312-86.309v.006c-6.161 24.71-24.364 76.161-85.768 76.161-59.119 0-79.601-51.445-85.768-76.161v-.006l12.312 86.303c1.015 7.139 9.034 7.107 9.034 7.107z" transform="translate(-22 -218) translate(22 218)"/>
                <path fill="#FC3D0B" fill-rule="nonzero" d="M245.252 78.26c-.054.146-.114.276-.168.432-.291 1.377-.631 2.868-1.026 4.45v.005l-12.312 86.309c-1.015 7.133-9.034 7.1-9.034 7.1H93.868s-8.019.033-9.034-7.1L72.522 83.153v-.011c-.394-1.588-.734-3.078-1.026-4.45-.06-.167-.119-.302-.173-.459-.189-.021-.383-.048-.572-.102l-11.2-3.208 12.933 90.655.4 2.808c.173 3.251-.616 8.176-7.026 8.176H29.452v3.969H287.14v-3.969h-36.407c-6.41 0-7.198-4.92-7.026-8.176l.4-2.808 12.917-90.536-10.784 3.089c-.335.092-.659.124-.988.13zM257.558 26.026l-5.61 1.815-6.048 42.39c.06-.027.108-.07.173-.092l.502-.135 3.494-.826 6.782-1.944c.432-.125.87-.152 1.296-.125l5.324-37.324-4.849-3.591c-.302-.222-.702-.287-1.064-.168zM60.124 67.239l8.677 2.484 1.2.286.501.135c.065.022.114.065.173.092l-6.048-42.39-5.691-1.841c-.314-.103-.654-.044-.918.15l-4.92 3.64 5.33 37.374c.556-.103 1.129-.092 1.696.07z" transform="translate(-22 -218) translate(22 218)"/>
                <path fill="#BDE300" fill-rule="nonzero" d="M58.941 26l5.692 1.84 45.97 14.878c1.879.61 3.688-1.129 3.137-3.024-1.976-6.767-8.57-19.181-30.364-19.894-1.188-.038-1.334-1.75-.178-2.009l29.09-6.56c1.917-.433 2.602-2.841 1.171-4.186C106.785.787 88.528-9.76 58.11 20.124c-.302.297-.777.378-1.16.189-38.351-18.64-52.3-2.83-56.636 5.227-.929 1.734.486 3.796 2.441 3.597l29.668-3.046c1.182-.119 1.582 1.544.47 1.96-20.434 7.614-22.73 21.487-22.448 28.528.08 1.977 2.349 3.046 3.936 1.869L53.104 29.79l4.919-3.64c.265-.194.605-.253.918-.15zM316.078 25.195c-4.536-8.144-18.608-23.231-56.338-4.93-.448.215-.988.129-1.345-.222C228.452-9.322 210.314.506 203.418 6.775c-1.582 1.437-.902 4.05 1.183 4.52l27.615 6.226c1.34.303 1.161 2.252-.21 2.328-20.526 1.107-27.027 12.846-29.069 19.542-.615 2.014 1.334 3.877 3.338 3.23l45.678-14.78 5.61-1.815c.363-.119.762-.054 1.065.173l4.849 3.591 38.48 28.474c1.696 1.253 4.131.108 4.19-1.998.2-6.998-2.23-20.201-21.33-27.783-1.28-.507-.826-2.414.54-2.273l28.162 2.889c2.122.221 3.601-2.041 2.56-3.904z" transform="translate(-22 -218) translate(22 218)"/>
                <path fill="#5998FF" fill-rule="nonzero" d="M256.856 67.239l-6.782 1.944-3.494.826-.502.135c-.065.022-.113.065-.173.092-.178.07-.33.173-.486.28l-1.263.363c-1.998.572-3.16 2.673-2.592 4.665.162.573.464 1.07.842 1.485-90.499 87.68-168.124.281-168.124.281.519-.459.924-1.058 1.129-1.771.572-1.998-.594-4.093-2.592-4.666l-2.057-.588c-.033-.017-.054-.038-.087-.049-.06-.027-.108-.07-.173-.092L70 70.01l-1.199-.286-8.677-2.484c-.567-.162-1.14-.173-1.69-.076-1.378.249-2.571 1.237-2.981 2.663-.573 1.998.594 4.093 2.592 4.665l1.495.427 11.2 3.207c.189.054.383.081.572.103.06.157.12.292.173.459.292 1.377.632 2.867 1.026 4.45v.016c6.162 24.71 26.65 76.161 85.768 76.161 61.398 0 79.602-51.445 85.769-76.161v-.006-.005c.394-1.588.734-3.078 1.026-4.45.054-.156.108-.286.167-.432.324-.005.653-.037.983-.13l10.784-3.088 1.911-.545c1.998-.573 3.16-2.673 2.592-4.666-.448-1.56-1.83-2.603-3.37-2.71-.415-.039-.853-.006-1.285.118z" transform="translate(-22 -218) translate(22 218)"/>
            </g>
        </g>
    </g>
</svg>
