<svg width="357" height="56" viewBox="0 0 357 56" fill="none"
    xmlns="http://www.w3.org/2000/svg">
    <g clip-path="url(#clip0_947_1898)">
        <path d="M25.1468 3.78116C26.0449 1.01723 29.9551 1.01722 30.8532 3.78115L35.409 17.8024C35.8106 19.0385 36.9625 19.8754 38.2621 19.8754H53.005C55.9111 19.8754 57.1195 23.5942 54.7683 25.3024L42.8411 33.9681C41.7897 34.732 41.3497 36.0861 41.7513 37.3222L46.3071 51.3435C47.2052 54.1074 44.0417 56.4058 41.6906 54.6976L29.7634 46.0319C28.7119 45.268 27.2881 45.268 26.2366 46.0319L14.3094 54.6976C11.9583 56.4058 8.79484 54.1074 9.6929 51.3435L14.2487 37.3222C14.6503 36.0861 14.2103 34.732 13.1589 33.9681L1.23167 25.3024C-1.11948 23.5942 0.0888483 19.8754 2.99502 19.8754H17.7379C19.0375 19.8754 20.1894 19.0385 20.591 17.8024L25.1468 3.78116Z" fill="#FFAA00"/>
        <path d="M100.147 3.78116C101.045 1.01723 104.955 1.01722 105.853 3.78115L110.409 17.8024C110.811 19.0385 111.962 19.8754 113.262 19.8754H128.005C130.911 19.8754 132.119 23.5942 129.768 25.3024L117.841 33.9681C116.79 34.732 116.35 36.0861 116.751 37.3222L121.307 51.3435C122.205 54.1074 119.042 56.4058 116.691 54.6976L104.763 46.0319C103.712 45.268 102.288 45.268 101.237 46.0319L89.3094 54.6976C86.9583 56.4058 83.7948 54.1074 84.6929 51.3435L89.2487 37.3222C89.6503 36.0861 89.2103 34.732 88.1589 33.9681L76.2317 25.3024C73.8805 23.5942 75.0888 19.8754 77.995 19.8754H92.7379C94.0375 19.8754 95.1894 19.0385 95.591 17.8024L100.147 3.78116Z" fill="#FFAA00"/>
        <path d="M175.147 3.78116C176.045 1.01723 179.955 1.01722 180.853 3.78115L185.409 17.8024C185.811 19.0385 186.962 19.8754 188.262 19.8754H203.005C205.911 19.8754 207.119 23.5942 204.768 25.3024L192.841 33.9681C191.79 34.732 191.35 36.0861 191.751 37.3222L196.307 51.3435C197.205 54.1074 194.042 56.4058 191.691 54.6976L179.763 46.0319C178.712 45.268 177.288 45.268 176.237 46.0319L164.309 54.6976C161.958 56.4058 158.795 54.1074 159.693 51.3435L164.249 37.3222C164.65 36.0861 164.21 34.732 163.159 33.9681L151.232 25.3024C148.881 23.5942 150.089 19.8754 152.995 19.8754H167.738C169.038 19.8754 170.189 19.0385 170.591 17.8024L175.147 3.78116Z" fill="#FFAA00"/>
        <path d="M250.147 3.78116C251.045 1.01723 254.955 1.01722 255.853 3.78115L260.409 17.8024C260.811 19.0385 261.962 19.8754 263.262 19.8754H278.005C280.911 19.8754 282.119 23.5942 279.768 25.3024L267.841 33.9681C266.79 34.732 266.35 36.0861 266.751 37.3222L271.307 51.3435C272.205 54.1074 269.042 56.4058 266.691 54.6976L254.763 46.0319C253.712 45.268 252.288 45.268 251.237 46.0319L239.309 54.6976C236.958 56.4058 233.795 54.1074 234.693 51.3435L239.249 37.3222C239.65 36.0861 239.21 34.732 238.159 33.9681L226.232 25.3024C223.881 23.5942 225.089 19.8754 227.995 19.8754H242.738C244.038 19.8754 245.189 19.0385 245.591 17.8024L250.147 3.78116Z" fill="#FFAA00"/>
        <path d="M325.147 3.78116C326.045 1.01723 329.955 1.01722 330.853 3.78115L335.409 17.8024C335.811 19.0385 336.962 19.8754 338.262 19.8754H353.005C355.911 19.8754 357.119 23.5942 354.768 25.3024L342.841 33.9681C341.79 34.732 341.35 36.0861 341.751 37.3222L346.307 51.3435C347.205 54.1074 344.042 56.4058 341.691 54.6976L329.763 46.0319C328.712 45.268 327.288 45.268 326.237 46.0319L314.309 54.6976C311.958 56.4058 308.795 54.1074 309.693 51.3435L314.249 37.3222C314.65 36.0861 314.21 34.732 313.159 33.9681L301.232 25.3024C298.881 23.5942 300.089 19.8754 302.995 19.8754H317.738C319.038 19.8754 320.189 19.0385 320.591 17.8024L325.147 3.78116Z" fill="#FFAA00"/>
        <mask id="mask0_947_1898" style="mask-type:alpha" maskUnits="userSpaceOnUse" x="328" y="-5" width="29" height="72">
            <rect x="328" y="-5" width="29" height="72" fill="#D9D9D9"/>
        </mask>
        <g mask="url(#mask0_947_1898)">
            <path d="M325.147 3.78116C326.045 1.01723 329.955 1.01722 330.853 3.78115L335.409 17.8024C335.811 19.0385 336.962 19.8754 338.262 19.8754H353.005C355.911 19.8754 357.119 23.5942 354.768 25.3024L342.841 33.9681C341.79 34.732 341.35 36.0861 341.751 37.3222L346.307 51.3435C347.205 54.1074 344.042 56.4058 341.691 54.6976L329.763 46.0319C328.712 45.268 327.288 45.268 326.237 46.0319L314.309 54.6976C311.958 56.4058 308.795 54.1074 309.693 51.3435L314.249 37.3222C314.65 36.0861 314.21 34.732 313.159 33.9681L301.232 25.3024C298.881 23.5942 300.089 19.8754 302.995 19.8754H317.738C319.038 19.8754 320.189 19.0385 320.591 17.8024L325.147 3.78116Z" fill="#708C8C"/>
        </g>
    </g>
    <defs>
        <clipPath id="clip0_947_1898">
            <rect width="357" height="56" fill="white"/>
        </clipPath>
    </defs>
</svg>
